<svg width="1440" height="1024" viewBox="0 0 1440 1024" fill="none" xmlns="http://www.w3.org/2000/svg">
<g clip-path="url(#clip0_1_2)">
<rect width="1440" height="1024" fill="white"/>
<path d="M-17 729C267 737 351 1053.5 660 866C660 866 659.572 852.93 783.75 831C907.928 809.07 859.952 800.82 907.5 796M907.5 796C955.048 791.18 1061.5 638 934 591.5C827.017 597.22 772.167 750.941 907.5 796ZM907.5 796C1142.28 819.703 1201.9 756.784 1183 512" stroke="black" stroke-width="12" stroke-linejoin="round" stroke-dasharray="30 30"/>
<path d="M1248.3 315.407C1231.86 306.287 1207.39 311.028 1199.86 328.272C1195.58 338.053 1197.3 349.288 1195.68 359.853C1192.14 351.033 1178.67 341.394 1173.54 337.31C1161.03 327.353 1146.78 319.539 1131.61 314.45C1126.9 312.859 1122.02 312.133 1117.27 312.382C1115.63 312.462 1114.03 312.651 1112.44 312.975C1105.72 314.318 1099.53 317.842 1094.93 323.928C1091.23 328.813 1089.54 334.024 1089.49 339.164C1089.46 340.727 1089.59 342.287 1089.87 343.828C1091.27 351.729 1096.4 359.091 1103.79 364.238C1106.51 366.128 1109.39 367.829 1112.41 369.35C1108.52 370.76 1104.92 372.723 1101.79 375.195C1100.5 376.204 1099.3 377.285 1098.19 378.466C1093.48 383.448 1090.47 389.893 1090.22 397.524C1090.03 403.647 1091.65 408.879 1094.59 413.103C1095.46 414.394 1096.47 415.594 1097.59 416.69C1103.29 422.332 1111.73 425.379 1120.74 425.31C1126.49 425.264 1132.32 424.462 1138.12 423.043C1139.41 422.728 1140.7 422.384 1141.99 421.996C1155.27 418.135 1168.12 411.219 1178.86 403.196C1178.41 404.817 1178.02 406.459 1177.73 408.128C1177.27 410.829 1177.06 413.583 1177.11 416.314C1177.19 419.326 1177.56 422.315 1178.21 425.253C1180.73 436.387 1187.33 446.655 1196.68 453.201C1195.3 456.003 1194.27 459.065 1193.26 461.454C1189.26 470.918 1185.25 480.382 1181.24 489.845C1180.86 490.756 1180.47 491.664 1180.09 492.574C1177.99 497.527 1179.55 502.282 1185.15 497.854C1196.18 489.117 1206.74 479.767 1216.74 469.858C1218.91 467.707 1221.51 465.295 1222.22 462.262C1235.53 462.87 1246.51 456.353 1255.1 446.076C1256.38 444.521 1257.63 442.879 1258.82 441.163C1261.85 436.816 1264.5 431.99 1266.8 426.862C1271.62 416.143 1274.87 404.166 1276.53 392.643C1277.55 385.523 1277.98 378.585 1277.75 372.236C1277.66 368.559 1277.33 365.097 1276.81 361.903C1273.73 343.338 1264.76 324.525 1248.3 315.407Z" fill="#F7B315"/>
<path d="M1131.61 314.45C1126.9 312.859 1122.02 312.134 1117.27 312.383C1115.63 312.463 1114.03 312.651 1112.44 312.975C1105.72 314.318 1099.53 317.842 1094.93 323.928C1091.23 328.813 1089.54 334.024 1089.49 339.165C1089.46 340.727 1089.59 342.287 1089.87 343.829C1091.27 351.73 1096.4 359.091 1103.79 364.239C1106.51 366.129 1109.39 367.829 1112.41 369.35C1108.52 370.76 1104.92 372.723 1101.79 375.195C1100.5 376.204 1099.3 377.285 1098.19 378.466C1093.48 383.448 1090.47 389.894 1090.22 397.524C1090.03 403.647 1091.65 408.879 1094.59 413.103C1095.46 414.394 1096.47 415.594 1097.59 416.69C1103.29 422.332 1111.73 425.38 1120.74 425.31C1126.49 425.264 1132.32 424.462 1138.12 423.043C1139.41 422.728 1140.7 422.384 1141.99 421.996C1155.27 418.135 1168.12 411.219 1178.86 403.196C1179.71 400.205 1180.79 397.287 1182.01 394.41C1183.43 391.071 1185.03 387.781 1186.63 384.486C1187.02 383.686 1187.41 382.885 1187.8 382.083C1188.22 381.208 1188.64 380.332 1189.06 379.453C1190.7 375.958 1192.24 372.431 1193.46 368.809C1194.12 366.834 1194.69 364.832 1195.13 362.792C1195.27 362.197 1195.39 361.604 1195.49 360.995C1195.56 360.615 1195.62 360.235 1195.68 359.854C1192.14 351.034 1178.67 341.395 1173.54 337.311C1161.03 327.353 1146.78 319.539 1131.61 314.45Z" fill="#B2CED3"/>
<path d="M1180.53 364.528C1179.16 364.307 1177.78 364.123 1176.42 363.97C1170.72 363.331 1165.27 363.217 1162.13 363.039C1150.32 362.373 1138.41 363.215 1126.81 365.56C1125.24 365.879 1123.67 366.224 1122.11 366.598C1119.62 367.194 1117.14 367.86 1114.69 368.597C1113.92 368.827 1113.16 369.078 1112.41 369.35C1108.52 370.759 1104.92 372.723 1101.79 375.195C1100.5 376.204 1099.3 377.284 1098.19 378.465C1093.48 383.448 1090.47 389.893 1090.22 397.524C1090.03 403.647 1091.65 408.878 1094.59 413.103C1095.46 414.394 1096.47 415.594 1097.59 416.69C1103.29 422.332 1111.73 425.379 1120.74 425.31C1126.49 425.264 1132.32 424.462 1138.12 423.043C1139.41 422.728 1140.7 422.384 1141.99 421.996C1155.27 418.135 1168.12 411.219 1178.86 403.196C1179.71 400.205 1180.79 397.287 1182.01 394.41C1183.43 391.071 1185.03 387.781 1186.63 384.486C1187.02 383.686 1187.41 382.885 1187.8 382.083C1188.22 381.208 1188.64 380.332 1189.06 379.453C1190.7 375.958 1192.24 372.43 1193.46 368.809C1190.21 366.627 1185.46 365.328 1180.53 364.528Z" fill="#E8F5F8"/>
<path d="M1122.17 338.879C1123.49 338.981 1124.79 339.105 1126.1 339.285L1126.1 339.304C1127.64 349.33 1125.76 358.173 1122.11 366.598C1123.67 366.224 1125.24 365.879 1126.81 365.56C1129.67 357.396 1130.53 348.417 1129.41 339.758C1147.01 342.67 1163.64 351.486 1176.42 363.97C1177.78 364.123 1179.16 364.307 1180.53 364.528C1166.26 349.82 1149.31 338.742 1128.68 335.43C1126.86 326.858 1123.06 318.784 1117.27 312.382C1115.63 312.462 1114.03 312.651 1112.44 312.975C1118.41 319.299 1123 326.28 1125.23 334.953L1124.74 334.89C1113.2 333.619 1101.69 334.981 1090.74 338.725L1089.49 339.164C1089.46 340.727 1089.59 342.287 1089.87 343.828C1100.24 339.89 1111.05 338.101 1122.17 338.879Z" fill="#8AAEB1"/>
<path d="M1186.63 384.486C1187.02 383.685 1187.41 382.885 1187.8 382.082C1166.26 377.394 1144.5 377.554 1124.42 387.42C1117.98 381.469 1110.22 377.076 1101.79 375.195C1100.5 376.205 1099.3 377.285 1098.19 378.466C1106.72 380.18 1114.5 383.229 1121.32 389.021L1120.89 389.255C1110.74 394.88 1102.13 402.639 1095.35 412.019L1094.59 413.103C1095.46 414.394 1096.47 415.593 1097.59 416.689C1103.78 407.486 1111.57 399.78 1121.1 393.993C1122.23 393.313 1123.37 392.662 1124.54 392.055L1124.55 392.069C1133.24 401.066 1136.65 411.584 1138.12 423.042C1139.41 422.728 1140.7 422.384 1141.99 421.996C1140.89 410.441 1135.51 399.204 1127.51 390.532C1145.63 381.739 1167.09 379.796 1186.63 384.486Z" fill="#B2CED3"/>
<path d="M1196.68 453.201C1195.3 456.002 1194.27 459.065 1193.26 461.454C1189.26 470.918 1185.25 480.382 1181.24 489.845C1180.86 490.755 1180.47 491.664 1180.09 492.574C1177.99 497.526 1179.55 502.282 1185.15 497.853C1196.18 489.116 1206.74 479.767 1216.74 469.858C1218.91 467.706 1221.5 465.295 1222.22 462.262C1215.58 461.959 1208.35 459.883 1200.56 455.616C1199.22 454.882 1197.92 454.074 1196.68 453.201Z" fill="#3B2111"/>
<path d="M1235.75 420.293C1217.46 414.561 1198.87 408.156 1184.02 396.043C1183.35 395.512 1182.69 394.953 1182.01 394.41C1180.79 397.287 1179.71 400.205 1178.86 403.196C1178.41 404.817 1178.02 406.459 1177.73 408.128C1177.27 410.829 1177.06 413.583 1177.11 416.314C1182.8 421.309 1189.37 425.275 1196.17 428.602C1200.55 430.749 1205.06 432.641 1209.61 434.401C1224.24 440.094 1239.52 444.693 1255.1 446.076C1256.38 444.521 1257.63 442.879 1258.82 441.163C1261.85 436.816 1264.5 431.99 1266.8 426.862C1264.17 426.708 1261.53 426.468 1258.91 426.105C1251.02 424.996 1243.36 422.681 1235.75 420.293Z" fill="#3B2111"/>
<path d="M1254.22 374.486C1242.12 374.046 1229.97 373.384 1218.13 370.853C1210.17 369.154 1202.32 366.566 1195.13 362.792C1194.69 364.832 1194.12 366.834 1193.46 368.809C1192.24 372.43 1190.7 375.958 1189.06 379.453C1197.26 384.854 1206.71 387.535 1216.32 389.4C1236.12 393.247 1256.43 394.33 1276.53 392.644C1277.55 385.524 1277.98 378.585 1277.75 372.236C1270.44 374.893 1262.13 374.768 1254.22 374.486Z" fill="#3B2111"/>
<path d="M1234.04 340.061C1233.91 335.254 1229.92 331.461 1225.11 331.585C1220.3 331.709 1216.51 335.705 1216.63 340.512C1216.76 345.317 1220.75 349.113 1225.56 348.988C1230.37 348.864 1234.16 344.866 1234.04 340.061Z" fill="#3B2111"/>
</g>
<defs>
<clipPath id="clip0_1_2">
<rect width="1440" height="1024" fill="white"/>
</clipPath>
</defs>
</svg>
